<?xml version="1.0" encoding="UTF-8" standalone="no"?>
<svg
   viewBox="0 0 48 48"
   version="1.1"
   id="svg52"
   sodipodi:docname="appicon.svg"
   inkscape:version="1.1.1 (3bf5ae0d25, 2021-09-20)"
   xmlns:inkscape="http://www.inkscape.org/namespaces/inkscape"
   xmlns:sodipodi="http://sodipodi.sourceforge.net/DTD/sodipodi-0.dtd"
   xmlns="http://www.w3.org/2000/svg"
   xmlns:svg="http://www.w3.org/2000/svg">
  <sodipodi:namedview
     id="namedview54"
     pagecolor="#ffffff"
     bordercolor="#666666"
     borderopacity="1.0"
     inkscape:pageshadow="2"
     inkscape:pageopacity="0.0"
     inkscape:pagecheckerboard="true"
     showgrid="false"
     inkscape:zoom="1.640625"
     inkscape:cx="-307.2"
     inkscape:cy="40.228571"
     inkscape:window-width="2560"
     inkscape:window-height="1378"
     inkscape:window-x="1920"
     inkscape:window-y="36"
     inkscape:window-maximized="1"
     inkscape:current-layer="svg52" />
  <defs
     id="defs7">
    <linearGradient
       id="linearGradient3764"
       x1="1"
       x2="47"
       gradientUnits="userSpaceOnUse"
       gradientTransform="rotate(-90,23.999998,24)">
      <stop
         style="stop-color:#2dbea8;stop-opacity:1"
         id="stop2" />
      <stop
         offset="1"
         style="stop-color:#2dbe60;stop-opacity:1"
         id="stop4" />
    </linearGradient>
  </defs>
  <path
     d="m 31.950417,3 c 8.638999,3.1698154 14.791087,11.474245 14.791087,21.23595 0,12.488309 -10.09805,22.612824 -22.562675,22.612824 C 14.443786,46.848774 6.1577725,40.683011 3,32.024812 A 23.064069,23.115331 0 0 0 48,24.989711 23.064069,23.115331 0 0 0 31.955431,3.0050251 Z"
     style="opacity:0.2;stroke-width:1.0039"
     id="path13" />
  <path
     d="M 24,1 C 36.703,1 47,11.297 47,24 47,36.703 36.703,47 24,47 11.297,47 1,36.703 1,24 1,11.297 11.297,1 24,1 Z"
     style="fill:url(#linearGradient3764);fill-opacity:1"
     id="path17" />
  <path
     d="m 40.03,7.531 c 3.712,4.084 5.969,9.514 5.969,15.469 0,12.703 -10.297,23 -23,23 C 17.045,46 11.615,43.744 7.53,40.031 11.708,44.322 17.54,47 23.999,47 c 12.703,0 23,-10.298 23,-23 0,-6.462 -2.677,-12.291 -6.969,-16.469 z"
     style="opacity:0.1"
     id="path48" />
  <g
     inkscape:label="Layer 1"
     id="layer1-1"
     transform="matrix(7.5590558,0,0,7.5590238,39.736223,39.736112)"
     style="fill:none;fill-opacity:1;stroke:#000000;stroke-opacity:0.10161">
    <path
       style="fill:none;fill-opacity:1;stroke:#000000;stroke-width:0.264583;stroke-opacity:0.10161"
       id="path1003-8"
       d="" />
    <path
       style="fill:none;fill-opacity:1;stroke:#000000;stroke-width:0.264583;stroke-opacity:0.10161"
       id="path965-9"
       d="" />
    <path
       id="path1825-6"
       style="fill:none;fill-opacity:1;stroke:#000000;stroke-width:0.258974;stroke-linecap:butt;stroke-linejoin:miter;stroke-miterlimit:4;stroke-dasharray:none;stroke-opacity:0.10161"
       d="M -1.51883,-0.42532024 V -1.5188301 h 1.09350967 M -3.3413463,-3.3413464 h 2.91602597 v 1.8225163 L -1.51883,-0.42532024 h -1.8225163 z"
       sodipodi:nodetypes="ccccccccc" />
  </g>
  <g
     inkscape:label="Layer 1"
     id="layer1"
     transform="matrix(7.5590558,0,0,7.5590238,38.236222,38.236161)">
    <path
       style="fill:#000000;stroke-width:0.264583"
       id="path1003"
       d="" />
    <path
       style="fill:#000000;stroke-width:0.264583"
       id="path965"
       d="" />
    <path
       id="path1825"
       style="fill:none;stroke:#ffffff;stroke-width:0.258974;stroke-linecap:butt;stroke-linejoin:miter;stroke-miterlimit:4;stroke-dasharray:none;stroke-opacity:1"
       d="M -1.51883,-0.42532024 V -1.5188301 h 1.09350967 M -3.3413463,-3.3413464 h 2.91602597 v 1.8225163 L -1.51883,-0.42532024 h -1.8225163 z"
       sodipodi:nodetypes="ccccccccc" />
  </g>
</svg>
