<?xml version="1.0" encoding="UTF-8" standalone="no"?>
<!-- Created with Inkscape (http://www.inkscape.org/) -->

<svg
   xmlns:dc="http://purl.org/dc/elements/1.1/"
   xmlns:cc="http://creativecommons.org/ns#"
   xmlns:rdf="http://www.w3.org/1999/02/22-rdf-syntax-ns#"
   xmlns:svg="http://www.w3.org/2000/svg"
   xmlns="http://www.w3.org/2000/svg"
   xmlns:sodipodi="http://sodipodi.sourceforge.net/DTD/sodipodi-0.dtd"
   xmlns:inkscape="http://www.inkscape.org/namespaces/inkscape"
   width="55mm"
   height="55mm"
   viewBox="0 0 55 55"
   version="1.1"
   id="svg8"
   inkscape:version="0.92.4 5da689c313, 2019-01-14"
   sodipodi:docname="icon.svg">
  <defs
     id="defs2" />
  <sodipodi:namedview
     id="base"
     pagecolor="#ffffff"
     bordercolor="#666666"
     borderopacity="1.0"
     inkscape:pageopacity="0.0"
     inkscape:pageshadow="2"
     inkscape:zoom="1.4"
     inkscape:cx="-306.81026"
     inkscape:cy="39.410756"
     inkscape:document-units="mm"
     inkscape:current-layer="layer1"
     showgrid="false"
     fit-margin-top="10"
     fit-margin-left="10"
     fit-margin-right="10"
     fit-margin-bottom="10"
     inkscape:window-width="2560"
     inkscape:window-height="1376"
     inkscape:window-x="0"
     inkscape:window-y="36"
     inkscape:window-maximized="1" />
  <metadata
     id="metadata5">
    <rdf:RDF>
      <cc:Work
         rdf:about="">
        <dc:format>image/svg+xml</dc:format>
        <dc:type
           rdf:resource="http://purl.org/dc/dcmitype/StillImage" />
        <dc:title></dc:title>
      </cc:Work>
    </rdf:RDF>
  </metadata>
  <g
     inkscape:label="Layer 1"
     inkscape:groupmode="layer"
     id="layer1"
     transform="translate(-18.173462,-15.160554)">
    <path
       style="fill:#ffffff;stroke-width:0.36688739"
       d="m 28.336094,25.160591 c 0,0 7.385757,-0.0037 24.384546,0.0633 l 10.192039,-0.02084 0.09787,15.763743 0.162913,5.159572 -5.122803,6.031708 c -2.81755,3.31745 -5.555692,6.475146 -6.084776,7.017105 l -0.96196,0.985374 -4.330841,-0.01061 -18.49962,-0.01546 c 0,0 0.05961,-19.807299 0.162724,-34.97389 z m 21.015331,26.310775 0.05493,-6.584547 5.776301,-0.05362 5.728851,-0.09886 -0.06504,-3.478226 9e-6,-14.082314 -8.543502,0.113162 H 30.514546 v 20.782394 9.930694 h 15.957181 l 2.844395,-0.02134 z m 6.622065,-0.146928 c 1.889464,-2.19935 3.785205,-4.436447 3.785205,-4.436447 0,0 -2.124829,0.01481 -4.294273,0.01481 h -3.944475 v 4.734912 c 0,4.003106 -0.0028,4.73012 -0.0028,4.73012 0,0 2.566516,-2.844034 4.45598,-5.043398 z"
       id="path4529"
       inkscape:connector-curvature="0"
       sodipodi:nodetypes="cscccsccccccccccccccccccccccscccc" />
  </g>
</svg>
